<svg xmlns="http://www.w3.org/2000/svg" viewBox="0 0.5 24.96070098876953 24.256799697875977"><g clip-path="url(#clip0_4275_3497)"><path d="M12.4802 12.4277V7.17916H9.69865C9.76544 7.13218 9.83438 7.0852 9.90333 7.04143C10.8653 6.42113 11.9846 6.09443 13.1394 6.09443C16.4197 6.09443 19.0892 8.74005 19.0892 11.991V12.3647H24.6888V11.991C24.6888 10.4472 24.3829 8.94824 23.7796 7.53468C23.1979 6.1713 22.3652 4.94779 21.3051 3.89723C20.2451 2.84667 19.0106 2.02139 17.6349 1.44593C16.2107 0.846983 14.6972 0.543773 13.1394 0.543773C10.8987 0.543773 8.72372 1.18115 6.85143 2.38759C6.29987 2.74311 5.77955 3.14454 5.29693 3.58762V0.5H0V7.04677L6.80726 12.4287H12.4802V12.4277Z" fill="#040506"/><path d="M12.4794 12.8558V18.1054H15.2265C14.2257 18.8143 13.0299 19.1965 11.776 19.1965C8.49568 19.1965 5.82621 16.5509 5.82621 13.3V12.9263H0.226562V13.3C0.226562 14.8438 0.532507 16.3427 1.13578 17.7563C1.7175 19.1197 2.55023 20.3432 3.60919 21.3938C4.66922 22.4443 5.90377 23.2685 7.27944 23.8461C8.70467 24.444 10.2182 24.7472 11.776 24.7472C14.7104 24.7472 17.5361 23.6326 19.6637 21.6617V24.7568H24.9607V18.2378L18.1534 12.8569H12.4805L12.4794 12.8558Z" fill="#040506"/></g></svg>