<svg xmlns="http://www.w3.org/2000/svg" viewBox="-437.99993896484375 77.99996185302734 1163.9998779296875 1088.9976806640625"><g xmlns="http://www.w3.org/2000/svg" opacity="0.1" filter="url(#filter0_f_69_1416)"><path d="M-327.492 483.434C-365.339 480.318 -382.752 460.466 -416.597 444.692C-420.877 453.245 -425.351 463.978 -427.973 473.145C-432.549 489.148 -437.837 505.291 -437.347 522.173C-436.926 536.706 -427.837 550.644 -422.075 563.462C-416.204 576.523 -413.106 588.18 -412.612 602.685C-410.893 653.184 -431.63 701.069 -437.347 750.693C-440.014 773.835 -433.985 796.234 -428.765 818.585C-418.385 863.028 -410.809 908.217 -393.291 950.631C-370.696 1005.34 -336.13 1050.51 -285.593 1082.19C-242.033 1109.51 -190.701 1123.93 -141.54 1137.55C-90.5497 1151.68 -36.2513 1158.5 16.2885 1163.72C57.9294 1167.85 99.9648 1168.64 141.46 1162.79C193.841 1155.41 238.724 1134.87 285.512 1111.39C329.344 1089.4 374.053 1072.85 420.85 1058.58C459.133 1046.91 496.174 1030.5 533.918 1017.12C555.415 1009.5 575.272 1000.17 593.599 986.424C617.592 968.429 642.304 947.819 659.309 922.798C678.455 894.626 691.803 862.303 703.41 830.457C712.211 806.31 719.424 781.843 722.863 756.321C727.826 719.489 728.503 674.433 712.784 639.885C697.857 607.075 671.882 579.795 660.894 544.994C646.863 500.56 653.472 451.833 660.85 406.88C667.772 364.706 673.164 324.064 668.728 281.253C664.763 242.986 656.898 200.75 638.491 166.576C619.954 132.159 587.558 103.827 550.775 90.1532C511.012 75.3714 472.686 73.4573 432.425 87.8227C329.302 124.618 268.691 220.17 189.785 289.256C156.451 318.442 118.12 344.706 74.4727 354.994C42.8391 362.449 10.8302 360.048 -21.2101 363.304C-55.2857 366.768 -86.4582 384.235 -115.573 401.164C-151.6 422.112 -184.446 449.82 -223.227 465.846C-257.48 480 -290.434 486.486 -327.492 483.434Z" fill="#3D87F5"/></g></svg>