<svg xmlns="http://www.w3.org/2000/svg" width="926" height="955" viewBox="0 0 926 955" fill="none"><g opacity="0.1" filter="url(#filter0_f_69_1416)"><path d="M-327.492 483.434C-365.339 480.318 -382.752 460.466 -416.597 444.692C-420.877 453.245 -425.351 463.978 -427.973 473.145C-432.549 489.148 -437.837 505.291 -437.347 522.173C-436.926 536.706 -427.837 550.644 -422.075 563.462C-416.204 576.523 -413.106 588.18 -412.612 602.685C-410.893 653.184 -431.63 701.069 -437.347 750.693C-440.014 773.835 -433.985 796.234 -428.765 818.585C-418.385 863.028 -410.809 908.217 -393.291 950.631C-370.696 1005.34 -336.13 1050.51 -285.593 1082.19C-242.033 1109.51 -190.701 1123.93 -141.54 1137.55C-90.5497 1151.68 -36.2513 1158.5 16.2885 1163.72C57.9294 1167.85 99.9648 1168.64 141.46 1162.79C193.841 1155.41 238.724 1134.87 285.512 1111.39C329.344 1089.4 374.053 1072.85 420.85 1058.58C459.133 1046.91 496.174 1030.5 533.918 1017.12C555.415 1009.5 575.272 1000.17 593.599 986.424C617.592 968.429 642.304 947.819 659.309 922.798C678.455 894.626 691.803 862.303 703.41 830.457C712.211 806.31 719.424 781.843 722.863 756.321C727.826 719.489 728.503 674.433 712.784 639.885C697.857 607.075 671.882 579.795 660.894 544.994C646.863 500.56 653.472 451.833 660.85 406.88C667.772 364.706 673.164 324.064 668.728 281.253C664.763 242.986 656.898 200.75 638.491 166.576C619.954 132.159 587.558 103.827 550.775 90.1532C511.012 75.3714 472.686 73.4573 432.425 87.8227C329.302 124.618 268.691 220.17 189.785 289.256C156.451 318.442 118.12 344.706 74.4727 354.994C42.8391 362.449 10.8302 360.048 -21.2101 363.304C-55.2857 366.768 -86.4582 384.235 -115.573 401.164C-151.6 422.112 -184.446 449.82 -223.227 465.846C-257.48 480 -290.434 486.486 -327.492 483.434Z" fill="#3D87F5"/></g><g opacity="0.1" filter="url(#filter1_f_69_1416)"><path d="M-177.018 805.718C-199.615 803.829 -210.013 791.798 -230.221 782.238C-232.776 787.421 -235.448 793.926 -237.013 799.482C-239.746 809.181 -242.903 818.964 -242.61 829.196C-242.359 838.004 -236.932 846.451 -233.492 854.22C-229.986 862.135 -228.136 869.2 -227.842 877.991C-226.815 908.597 -239.196 937.618 -242.61 967.693C-244.202 981.718 -240.603 995.293 -237.486 1008.84C-231.289 1035.77 -226.765 1063.16 -216.305 1088.87C-202.814 1122.02 -182.175 1149.4 -152.001 1168.6C-125.992 1185.16 -95.343 1193.9 -65.9899 1202.15C-35.5447 1210.72 -3.12427 1214.85 28.2461 1218.01C53.1091 1220.52 78.2075 1221 102.983 1217.45C134.259 1212.98 161.057 1200.53 188.994 1186.3C215.165 1172.97 241.86 1162.94 269.801 1154.29C292.66 1147.22 314.776 1137.27 337.312 1129.16C350.147 1124.54 362.004 1118.89 372.946 1110.56C387.272 1099.65 402.027 1087.16 412.18 1072C423.612 1054.93 431.582 1035.34 438.512 1016.03C443.767 1001.4 448.074 986.571 450.127 971.104C453.09 948.781 453.494 921.474 444.109 900.536C435.196 880.652 419.688 864.118 413.126 843.027C404.749 816.097 408.695 786.565 413.1 759.321C417.233 733.762 420.452 709.13 417.804 683.184C415.437 659.992 410.741 634.394 399.75 613.682C388.682 592.823 369.339 575.653 347.377 567.366C323.635 558.407 300.751 557.247 276.713 565.953C215.14 588.254 178.951 646.164 131.837 688.034C111.935 705.722 89.0474 721.64 62.9867 727.875C44.099 732.394 24.9871 730.938 5.85648 732.912C-14.4893 735.011 -33.1018 745.597 -50.4854 755.857C-71.9964 768.553 -91.6081 785.346 -114.764 795.058C-135.216 803.637 -154.891 807.567 -177.018 805.718Z" fill="#6D3DF5"/></g><defs><filter id="filter0_f_69_1416" x="-638" y="-122" width="1564" height="1489" filterUnits="userSpaceOnUse" color-interpolation-filters="sRGB"><feFlood flood-opacity="0" result="BackgroundImageFix"/><feBlend mode="normal" in="SourceGraphic" in2="BackgroundImageFix" result="shape"/><feGaussianBlur stdDeviation="100" result="effect1_foregroundBlur_69_1416"/></filter><filter id="filter1_f_69_1416" x="-443" y="360" width="1095" height="1060" filterUnits="userSpaceOnUse" color-interpolation-filters="sRGB"><feFlood flood-opacity="0" result="BackgroundImageFix"/><feBlend mode="normal" in="SourceGraphic" in2="BackgroundImageFix" result="shape"/><feGaussianBlur stdDeviation="100" result="effect1_foregroundBlur_69_1416"/></filter></defs></svg>