<svg xmlns="http://www.w3.org/2000/svg" width="20" height="20" viewBox="0 0 20 20" fill="none"><path d="M10.0005 18.2037C14.532 18.2037 18.2056 14.5302 18.2056 9.99859C18.2056 5.46702 14.532 1.79346 10.0005 1.79346C5.46891 1.79346 1.79535 5.46702 1.79535 9.99859C1.79535 14.5302 5.46891 18.2037 10.0005 18.2037Z" stroke="#2467E3" stroke-width="1.23077" stroke-linecap="round" stroke-linejoin="round"/><path d="M6.71835 2.61377H7.53887C5.93887 7.40556 5.93887 12.5912 7.53887 17.383H6.71835" stroke="#2467E3" stroke-width="1.23077" stroke-linecap="round" stroke-linejoin="round"/><path d="M12.462 2.61377C14.062 7.40556 14.062 12.5912 12.462 17.383" stroke="#2467E3" stroke-width="1.23077" stroke-linecap="round" stroke-linejoin="round"/><path d="M2.61584 13.2805V12.46C7.40764 14.06 12.5933 14.06 17.3851 12.46V13.2805" stroke="#2467E3" stroke-width="1.23077" stroke-linecap="round" stroke-linejoin="round"/><path d="M2.61584 7.53716C7.40764 5.93716 12.5933 5.93716 17.3851 7.53716" stroke="#2467E3" stroke-width="1.23077" stroke-linecap="round" stroke-linejoin="round"/></svg>